# xmcd
# 
# Track frame offsets:
#     187
#     28884
#     46237
# 
# Disc length: 998
# 
# Revision: 1
# Processed by: cddbd v1.5.2PL0 Copyright (c) Steve Scherf et al.
# Submitted via: fre:ac v1.0.31
# 
DISCID=1f03e403
DTITLE=徳永英明 - 僕のそばに
DYEAR=1993
DGENRE=JPop
TTITLE0=僕のそばに
TTITLE1=星と月のピアスと君の夢
TTITLE2=僕のそばに(No Vocal Edition)
EXTD=
EXTT0=
EXTT1=
EXTT2=
PLAYORDER=
